<?xml version="1.0" encoding="utf-8"?>
<!-- Generator: Adobe Illustrator 21.0.0, SVG Export Plug-In . SVG Version: 6.00 Build 0)  -->
<svg version="1.1"
	 id="svg6595" inkscape:version="0.91 r13725" sodipodi:docname="hack_club_full_white.svg" xmlns:cc="http://creativecommons.org/ns#" xmlns:dc="http://purl.org/dc/elements/1.1/" xmlns:inkscape="http://www.inkscape.org/namespaces/inkscape" xmlns:rdf="http://www.w3.org/1999/02/22-rdf-syntax-ns#" xmlns:sodipodi="http://sodipodi.sourceforge.net/DTD/sodipodi-0.dtd" xmlns:svg="http://www.w3.org/2000/svg"
	 xmlns="http://www.w3.org/2000/svg" xmlns:xlink="http://www.w3.org/1999/xlink" x="0px" y="0px" viewBox="0 0 165.4 28.6"
	 style="enable-background:new 0 0 165.4 28.6;" xml:space="preserve">
<style type="text/css">
	.st0{fill:#E42D3F;}
</style>
<sodipodi:namedview  bordercolor="#666666" borderopacity="1.0" fit-margin-bottom="0" fit-margin-left="0" fit-margin-right="0" fit-margin-top="0" id="base" inkscape:current-layer="layer1" inkscape:cx="91.833908" inkscape:cy="-49.095549" inkscape:document-units="px" inkscape:pageopacity="0.0" inkscape:pageshadow="2" inkscape:window-height="930" inkscape:window-maximized="0" inkscape:window-width="1076" inkscape:window-x="2520" inkscape:window-y="1201" inkscape:zoom="1.979899" pagecolor="#ffffff" showgrid="false">
	</sodipodi:namedview>
<g id="layer1" transform="translate(-213.75221,-480.18586)" inkscape:groupmode="layer" inkscape:label="Layer 1">
	<path id="text3025-8-56" inkscape:connector-curvature="0" class="st0" d="M235.4,480.2l-6.3,1.1v1.2v5.6v4.6h-9c0-1.9,0-3.9,0-5.7
		v-6.8l-6.4,1.1v1.1v5.6v20.4h6.3v-11.1h9v11.1h6.3v-21.5v-4.5L235.4,480.2z M282.8,480.6l-6.1,1.1v26.8h6.1v-8.3c0,0,0,0,0,0
		c5.1,8.3,0.1,0.2,5.1,8.3h6.1l-6.3-9.6l5.8-9.7h-5.9l-4.9,8v-3.5V480.6z M334.1,480.6l-6.1,1.1v22c0,2.7,1.5,4.9,5.1,4.9
		c2.2,0,4.2-0.7,5-1l-0.6-3.8c-0.6,0.1-1.3,0.2-1.9,0.2c-1.2,0-1.5-0.4-1.5-1.6V480.6z M368,480.6l-6.1,1.1v25.9
		c0.4,0.2,4.5,1.1,7.6,1.1c5.7,0,9.6-4.3,9.6-10.2c0-5.8-2.4-9.6-7.2-9.6c-1.7,0-3,0.7-4,1.9V480.6z M318.1,482.1
		c-7.8,0-11.6,5.7-11.6,13.7c0,8.2,3.5,12.9,11.4,12.9c3.1,0,5.6-0.6,7.2-1.3l-1.4-4.3c-1.4,0.6-3.2,1.1-5,1.1
		c-4.1,0-5.3-3.6-5.3-8.9c0-5.5,1.4-8.8,4.8-8.8c1.3,0,2.7,0.5,4.1,2.2l3.4-3.5C324.1,483.7,322.2,482.1,318.1,482.1z M268.8,488.8
		c-5.3,0-9.3,3.6-9.3,10.5c0,5.6,2.6,9.5,8.9,9.5c3.4,0,5.7-1.3,5.7-1.3l-1.1-4.1c-0.1,0-2,0.8-3.2,0.8c-1.7,0-3.8-0.7-3.8-5.5
		c0-4.9,2-5.4,3.3-5.4c1,0,1.6,0.6,2.2,1.3l3-3.1C273.2,489.9,271.2,488.8,268.8,488.8z M248.2,488.9c-5.7,0-9.7,4.3-9.7,10.2
		c0,5.8,2.4,9.5,7.4,9.5c2.8,0,4.4-1.4,5.3-3.8c0.5,2.5,1.9,3.8,1.9,3.8l4.9-1.5c0,0-2.1-2-2.1-8V490
		C255.7,490,251.3,488.9,248.2,488.9z M340.3,489.2V502c0,4.1,1.5,6.7,5.6,6.7c2.7,0,5.2-1.1,6.5-3.5c0.5,2.3,1.8,3.5,1.8,3.5
		l4.9-1.5c0,0-2.1-2-2.1-8v-10h-6v9.6c0,3.3-1.5,5.4-2.9,5.4c-1.2,0-1.5-1.2-1.5-3v-12H340.3z M248.2,493.4c0.5,0,1.2,0.2,1.6,0.3
		v4.5c0,3.2-1.3,6.1-2.8,6.1c-1.8,0-1.9-2.7-1.9-5.5C245,495.6,245.7,493.4,248.2,493.4z M370.8,493.4c1.8,0,2,2.7,2,5.6
		c0,3.1-0.7,5.3-3.2,5.3c-0.5,0-1.3-0.2-1.6-0.3v-4.1C368,496.4,369.1,493.4,370.8,493.4z"/>
</g>
</svg>
